<?xml version="1.0" encoding="utf-8"?>
<!-- Generator: Adobe Illustrator 19.2.1, SVG Export Plug-In . SVG Version: 6.00 Build 0)  -->
<svg version="1.1" id="layer" xmlns="http://www.w3.org/2000/svg" xmlns:xlink="http://www.w3.org/1999/xlink" x="0px" y="0px"
	 viewBox="0 0 652 652" style="enable-background:new 0 0 652 652;" xml:space="preserve">
<style type="text/css">
	.st0{fill:#EE3124;}
	.st1{fill:#9A8B7D;}
	.st2{fill:#FFFFFF;}
	.st3{fill:#00A94F;}
</style>
<rect x="20" y="321.8" class="st0" width="415.6" height="6"/>
<g>
	<path class="st1" d="M184.6,341.7h-6.1c0,0-7.2,9.1-7.6,9.5v-9.5h-5.2V365h5.2v-10.2c0.3,0.4,7.9,10.2,7.9,10.2h6.6
		c0,0-10-12.3-10.1-12.5c0.1-0.1,9.6-10.8,9.6-10.8H184.6z"/>
	<path class="st1" d="M213,348.1c0,3.5,2.3,5.1,5.7,6.4c0,0,0.4,0.1,0.4,0.1c1.9,0.7,3.9,1.4,3.8,3.5c0,1.6-1.1,3.2-3.1,3.2
		c-2.2,0-3.8-1.7-4.4-3.3l-0.1-0.2l-3.4,3l0.1,0.1c1.9,3,4.6,4.6,7.8,4.6c5.1,0,8.3-3.1,8.3-8c0-4.6-3.5-6-6.3-7.1
		c-2-0.8-3.6-1.4-3.6-2.9c0-1.5,1.5-2.5,2.9-2.5c1.5,0,2.6,0.6,3.6,1.8l0.1,0.2l2.4-3.3l-0.1-0.1c-1.6-1.6-4.8-2.6-7-2.6
		C216.2,341.1,213,344.1,213,348.1"/>
</g>
<polygon class="st1" points="238.7,341.7 233.7,341.7 233.7,365 238.9,365 238.9,341.7 "/>
<g>
	<path class="st1" d="M264.2,341.7h-6.1c0,0-7.2,9.1-7.6,9.5v-9.5h-5.2V365h5.2v-10.2c0.3,0.4,7.9,10.2,7.9,10.2h6.6
		c0,0-10-12.3-10.1-12.5c0.1-0.1,9.6-10.8,9.6-10.8H264.2z"/>
	<path class="st1" d="M318,341.1h-3.6V365h5.1v-15.5c0.3,0.4,13.1,15.9,13.1,15.9h3.7v-23.7h-5.2v15.3
		C330.8,356.6,318.1,341.1,318,341.1L318,341.1z"/>
	<path class="st1" d="M391.1,341.1h-3.6V365h5.2v-15.5c0.3,0.4,13.1,15.9,13.1,15.9h3.7v-23.7h-5.2v15.3
		C403.9,356.6,391.1,341.1,391.1,341.1L391.1,341.1z"/>
	<path class="st1" d="M434.2,341.7h-6.1c0,0-7.2,9.1-7.6,9.5v-9.5h-5.2V365h5.2v-10.2c0.3,0.4,7.9,10.2,7.9,10.2h6.6
		c0,0-10-12.3-10.1-12.5c0.1-0.1,9.6-10.8,9.6-10.8H434.2z"/>
	<path class="st1" d="M198.2,348.3c0.2,0.5,2.9,7.7,3,7.9h-5.6C195.7,355.9,198,348.8,198.2,348.3 M200.3,341.1h-3.9l-9.9,23.9h5.4
		c0,0,2-4.7,2.1-4.9h8.5c0.1,0.2,1.9,4.9,1.9,4.9h5.5l-9.6-23.9H200.3z"/>
	<path class="st1" d="M272,359.1c-1.7-1.6-2.9-3.9-2.9-6c0-3.6,2.9-7.4,7.2-7.4c1.8,0,3.4,0.6,4.7,1.8c1.6,1.4,2.5,3.5,2.5,5.5
		c0,3.5-3.2,7.8-7.2,7.8C274.3,360.9,272.9,359.9,272,359.1 M263.8,353.3c0,3.5,1.4,6.8,4,9.1c2.3,2.1,5.3,3.2,8.6,3.2
		c7.1,0,12.5-5.3,12.5-12.3c0-3.4-1.4-6.7-4-9c-2.3-2.1-5.2-3.2-8.5-3.2C269.3,341.1,263.8,346.5,263.8,353.3"/>
	<path class="st1" d="M299,345.6c1.8,0,2.9,0.3,3.5,0.9c0.4,0.4,0.7,0.9,0.8,1.5c0,0.3,0.1,0.5,0.1,0.8c0,2.4-1.3,3.4-4.5,3.4h-0.5
		v-6.7H299z M293.4,341.7h-0.1V365h5.2v-9.1c0.3,0.5,5.9,9.1,5.9,9.1h6.2c0,0-6.9-9.5-7.1-9.8c3.5-0.6,5-3.8,5-6.4
		c0-0.5-0.1-1.1-0.1-1.6c-0.3-1.5-0.9-2.6-1.9-3.5c-1.5-1.3-3.7-2-6.5-2H293.4z"/>
	<path class="st1" d="M348.3,345.6c1.3,0,2.1,0.2,2.6,0.7c0.3,0.3,0.6,0.8,0.7,1.4c0,0.2,0.1,0.5,0.1,0.7c0,2.2-0.9,2.9-3.4,2.9
		h-0.4c0-0.3,0-5.5,0-5.7H348.3z M348.5,355c1.7,0,3.3,0.1,4.2,0.9c0.4,0.3,0.6,0.8,0.7,1.4c0,0.2,0.1,0.4,0.1,0.7
		c0,2.9-2.3,3.2-4.8,3.2h-0.9c0-0.3,0-6,0-6.2H348.5z M342.8,341.7h-0.1V365h7.8c5.1,0,8.1-2.5,8.1-6.6c0-0.4,0-0.8-0.1-1.3
		c-0.4-2.1-1.7-4.1-4.1-4.6c1.5-1,2.1-2.9,2.1-4.4c0-0.6,0-1.1-0.1-1.6c-0.2-1.3-0.8-2.3-1.6-3.1c-1.3-1.2-3.2-1.7-5.9-1.7H342.8z"
		/>
	<path class="st1" d="M372.5,348.3c0.2,0.5,2.9,7.7,3,7.9h-5.6C370,355.9,372.3,348.8,372.5,348.3 M374.6,341.1h-3.9l-9.9,23.9h5.4
		c0,0,2-4.7,2.1-4.9h8.5c0.1,0.2,1.9,4.9,1.9,4.9h5.5l-9.6-23.9H374.6z"/>
</g>
<polygon class="st1" points="100.7,342.6 92.9,342.6 92.9,345.2 100.9,345.2 100.9,342.6 "/>
<g>
	<path class="st1" d="M106.1,353.4h-3.2l0.1,7.2c0,0,0,1.7,0,1.7v0c0,0.8,0.2,1.4,0.8,1.9c0.9,0.8,2.4,0.9,2.4,0.9h3.6l0-2.8h-2.4
		c-0.2,0-0.4,0-0.6-0.2c-0.2-0.2-0.3-0.5-0.3-0.8l0-0.7l-0.1-7.1H106.1z"/>
	<path class="st1" d="M96.5,348.3h-3.1l-0.1,12.3l0,1.7l0,0c0,0.8,0.2,1.4,0.8,1.9c0.9,0.8,2.4,0.9,2.5,0.9h4.6l0-2.8h-3.3
		c-0.2,0-0.4,0-0.7-0.2c-0.2-0.2-0.3-0.5-0.3-0.8l0-0.8l0.1-12.2H96.5z"/>
	<path class="st1" d="M111.6,344.1c0,0.5,0.1,5.7,0.1,5.7c0,1.9-0.3,1.9-1.8,1.9h-3.5c0-0.5-0.1-7.1-0.1-7.5H111.6z M114.7,341.5
		h-11.9l0.1,12.7h9.6c1.9,0,2.7-1.4,2.7-2.8l-0.1-9.9H114.7z"/>
</g>
<polygon class="st1" points="113.4,346.6 104.4,346.6 104.5,349.2 113.8,349.2 113.8,346.6 "/>
<g>
	<path class="st1" d="M111.3,355.2h-3.1l2.4,5.9l0.8,2.1l0,0c0.5,1.3,1.1,2,2.7,2h2.4l0-2.5l-0.7,0c-0.9,0-1.4-0.2-2.1-1.9l-2.3-5.6
		H111.3z"/>
</g>
<polygon class="st1" points="91.3,346.7 91.2,349 100.9,349 100.9,346.6 91.3,346.6 "/>
<polygon class="st1" points="100.9,351.7 88.8,351.7 88.9,354.3 101,354.3 100.9,351.7 "/>
<g>
	<path class="st1" d="M114.5,355.1c0,0-0.6,2.2-0.6,2.3c-0.5,1.1-1.6,0.8-1.6,0.8l-0.2-0.1l0,2.5h2.2c1.8,0,1.9-1.3,1.9-1.3
		c0,0,1.1-4.1,1.1-4.1l0-0.2L114.5,355.1L114.5,355.1z"/>
	<path class="st1" d="M96.5,341.3h-3.3l-2.7,5.3c-0.3,0.5-1.4,0.5-1.4,0.5l-0.1,0l0,2.5l2.1,0c1.3,0,1.7-1.1,1.7-1.1
		c0,0,3.8-6.9,3.8-6.9l0.1-0.2H96.5z"/>
</g>
<polygon class="st1" points="146.4,341.6 134.7,341.6 134.8,344.9 147.2,344.9 147.1,341.6 "/>
<g>
	<path class="st1" d="M131,341.3h-3l-2.4,5.3c-0.2,0.4-1.1,0.4-1.1,0.4l-0.3,0l0.1,2.7l2,0c1.3,0,1.6-1.1,1.6-1.2
		c0,0,3.3-6.8,3.3-6.8l0.2-0.4H131z"/>
	<path class="st1" d="M129.4,348.4l-1.6,3.3c-0.4,0.9-0.8,1.2-1.4,1.2c0,0-1.5,0-1.5,0l0.1,2.8h2c2.4,0,3.3-2,3.3-2.1
		c0,0,2.4-5,2.4-5l0.2-0.4l-3.5,0L129.4,348.4z"/>
</g>
<polygon class="st1" points="129.3,353.2 126,353.2 126.2,365.1 130.2,365.1 130,353.2 "/>
<g>
	<path class="st1" d="M145.8,350h-3.3l0.3,10.2v0.4c0,1.1,0,1.2-0.3,1.2l-7.5,0l0.1,3.4l8.6,0c0.7,0,3.1-0.2,3-2.8l-0.1-1.7
		l-0.3-10.7H145.8z"/>
</g>
<polygon class="st1" points="147,348.4 134.4,348.4 134.5,351.7 147.7,351.7 147.7,348.4 "/>
<polygon class="st1" points="81.3,341.8 57,341.8 57.1,344.5 81.8,344.6 81.8,341.8 "/>
<polygon class="st1" points="81.4,349.2 57.2,349.2 57.2,351.9 81.8,351.9 81.8,349.2 "/>
<polygon class="st1" points="80.2,345.8 58.4,345.8 58.4,347.9 80.5,347.9 80.5,345.8 "/>
<polygon class="st1" points="71.1,340.2 67.6,340.2 67.6,351.7 71.5,351.7 71.4,340.2 "/>
<g>
	<path class="st1" d="M71.1,353h-3.4l0.1,7.4l0,1.2c0,0.8-0.1,0.8-0.6,0.8h-1.5v0.2l0,2.5H69c1,0,2.7-0.4,2.7-2.8l0-1.8l-0.1-7.5
		H71.1z"/>
	<path class="st1" d="M59,363.3c0.7,0,1.6-0.5,2.2-1.4c0,0,0.6-0.9,0.7-1h3.2c-0.1,0.1-0.2,0.2-0.2,0.2c0,0-1.2,1.5-1.2,1.5
		c0,0-0.2,0.3-0.2,0.3c-1.6,2-1.7,2-4.3,2h-1.9c0-0.2,0-1.4,0-1.6C57.4,363.4,59,363.3,59,363.3"/>
	<path class="st1" d="M61.7,351.2c0,0,2.4,0,3.3,0c-0.1,0.1-0.2,0.2-0.2,0.2l-1.2,1.5c-1.9,2.2-2.1,2.3-4,2.2h-2.5
		c0-0.2,0-1.4,0-1.6c0.2,0,1.3,0,1.3,0c1.3,0,1.6-0.3,2.1-1l0.1-0.1c0,0,0.5-0.6,0.5-0.6L61.7,351.2z"/>
	<path class="st1" d="M76.5,351.8c0,0,0.7,0.6,0.7,0.6l0.1,0.1c0.8,0.6,1.2,1,2.5,1c0,0,1.8,0,2,0c0.1,0.2,0,1.4,0,1.6h-2.6
		c-1.8,0.1-2.1,0.1-4.8-2.2l-1.7-1.5c0,0-0.1-0.1-0.3-0.2c0.9,0,3.3,0,3.3,0C75.8,351.2,76.5,351.8,76.5,351.8"/>
	<path class="st1" d="M57.4,356.7c0,0-0.1-0.1-0.2-0.2c0.5,0,3.1,0,3.3,0c0.1,0.1,0.2,0.2,0.2,0.2c0.7,0.8,1.6,0.9,2.8,0.9
		c0,0,1.3,0,1.7,0c0,0.2,0,1.7,0,1.8c-0.2,0-2.7,0-2.7,0c-2.8,0-3.2-0.4-4.6-2.1C57.9,357.3,57.4,356.7,57.4,356.7"/>
	<path class="st1" d="M77.2,361c0.1,0.1,0.7,1,0.7,1c0.7,0.9,1.6,1.4,2.3,1.4c0,0,1.3,0,1.7,0c0,0.2,0,1.4,0,1.6c-0.3,0-2,0-2,0
		c-2.6,0-2.7-0.1-4.4-2l-0.3-0.3c0,0-1.2-1.5-1.2-1.5s-0.1-0.1-0.2-0.2C74.4,361,77,361,77.2,361"/>
	<path class="st1" d="M78.5,356.7c0,0,0.2-0.3,0.2-0.3c0,0,2.3,0,3.2,0c-0.1,0.1-0.2,0.2-0.2,0.2c0,0-0.5,0.6-0.5,0.6
		c-1.4,1.7-1.8,2.1-4.6,2.1c0,0-2.1,0-2.6,0c0-0.2,0-1.7,0-1.8c0.2,0,1.8,0,1.8,0C77.1,357.6,77.9,357.4,78.5,356.7"/>
</g>
<polygon class="st1" points="49.6,351.4 21.4,351.4 21.4,354.1 50,354.1 50,351.4 "/>
<polygon class="st1" points="47.3,341.6 23.5,341.6 23.5,344.3 47.8,344.3 47.8,341.6 "/>
<polygon class="st1" points="42.1,342.3 39.1,342.3 39,365.2 42.7,365.3 42.7,342.3 "/>
<g>
	<path class="st1" d="M33,343.1v15.3c0,0-0.1,3.1-1.9,4.7c-1.8,1.6-2.3,2.1-2.3,2.1l-2.7-2.5l2.1-1.9c0,0,1.1-0.9,1.1-4.1v-13.6
		L33,343.1z"/>
	<path class="st2" d="M614.7,321.9c0,38.1-30.9,69-69.1,69c-38.1,0-69.1-30.9-69.1-69c0-38.1,30.9-69.1,69.1-69.1
		C583.8,252.8,614.7,283.8,614.7,321.9"/>
	<path class="st1" d="M580.4,357.6c-3.2-1.6-6.5-3.3-11.6-3.3c-4.5,0-8.1,1.7-11.6,3.3c-3.6,1.7-7.4,3.4-12.4,3.4
		c-4.4,0-7.8-1.5-11.3-3.2c-3.7-1.7-7.4-3.4-12.5-3.4c-4.5,0-8.1,1.6-11.6,3.2c-3.7,1.7-7.5,3.4-12.5,3.4c-0.3,0-0.5,0-0.8,0
		c0.5,0.6,1,1.3,1.6,1.9c5-0.2,8.8-1.9,12.5-3.5c3.5-1.6,6.7-3,10.8-3c4.7,0,8.1,1.6,11.7,3.3c3.6,1.7,7.3,3.4,12.1,3.4
		c5.4,0,9.4-1.8,13.2-3.6c3.4-1.6,6.7-3.1,10.8-3.1c4.6,0,7.6,1.5,10.8,3.1c3.5,1.7,7,3.6,12.9,3.6c0.6-0.6,1.1-1.3,1.6-1.9
		c-0.5,0-1,0.1-1.5,0.1C587.1,361,583.7,359.3,580.4,357.6"/>
	<path class="st1" d="M568.8,357.9c-4.5,0-8.1,1.7-11.6,3.3c-3.6,1.7-7.4,3.4-12.4,3.4c-4.4,0-7.8-1.5-11.3-3.2
		c-3.7-1.7-7.4-3.4-12.5-3.4c-4.5,0-8.1,1.6-11.6,3.2c-3.1,1.4-6.3,2.8-10.3,3.2c0.5,0.6,1.1,1.1,1.6,1.7c3.6-0.6,6.5-1.9,9.4-3.2
		c3.5-1.6,6.7-3,10.8-3c4.7,0,8.1,1.6,11.7,3.3c3.6,1.6,7.3,3.4,12.1,3.4c5.4,0,9.4-1.8,13.2-3.6c3.4-1.6,6.7-3.1,10.8-3.1
		c4.6,0,7.6,1.5,10.8,3.1c2.8,1.4,5.6,2.9,9.7,3.4c0.6-0.6,1.1-1.2,1.7-1.7c-4.6-0.3-7.6-1.8-10.5-3.3
		C577.2,359.6,573.9,357.9,568.8,357.9"/>
	<path class="st1" d="M568.8,361.5c-4.5,0-8.1,1.7-11.6,3.3c-3.6,1.7-7.4,3.4-12.4,3.4c-4.4,0-7.8-1.5-11.3-3.2
		c-3.7-1.7-7.4-3.4-12.5-3.4c-4.5,0-8.1,1.6-11.6,3.2c-2.3,1-4.6,2.1-7.2,2.7c0.6,0.5,1.1,1,1.7,1.5c2.3-0.7,4.3-1.6,6.3-2.5
		c3.5-1.5,6.7-3,10.8-3c4.7,0,8.1,1.6,11.7,3.3c3.6,1.6,7.3,3.4,12.1,3.4c5.4,0,9.4-1.8,13.2-3.6c3.4-1.6,6.7-3.1,10.8-3.1
		c4.6,0,7.6,1.5,10.8,3.1c2,1,4,2,6.5,2.7c0.6-0.5,1.2-1,1.7-1.5c-2.9-0.6-5.2-1.8-7.4-2.9C577.2,363.1,573.9,361.5,568.8,361.5"/>
	<path class="st1" d="M568.8,365c-4.5,0-8.1,1.7-11.6,3.2c-3.6,1.7-7.4,3.4-12.4,3.4c-4.4,0-7.8-1.6-11.3-3.2
		c-3.7-1.7-7.4-3.5-12.5-3.5c-4.5,0-8.1,1.6-11.6,3.2c-1.4,0.6-2.8,1.2-4.2,1.8c0.6,0.5,1.1,0.9,1.7,1.4c1.1-0.4,2.2-0.9,3.3-1.4
		c3.5-1.6,6.7-3,10.8-3c4.7,0,8.1,1.6,11.7,3.3c3.6,1.7,7.3,3.4,12.1,3.4c5.4,0,9.4-1.8,13.2-3.6c3.4-1.6,6.7-3.1,10.8-3.1
		c4.6,0,7.6,1.5,10.8,3.1c1.1,0.6,2.2,1.1,3.4,1.6c0.6-0.4,1.2-0.9,1.7-1.4c-1.5-0.6-2.9-1.3-4.3-2C577.2,366.7,573.9,365,568.8,365
		"/>
	<path class="st1" d="M568.8,368.6c-4.5,0-8.1,1.6-11.6,3.3c-3.6,1.7-7.4,3.4-12.4,3.4c-4.4,0-7.8-1.6-11.3-3.2
		c-3.7-1.7-7.4-3.4-12.5-3.4c-4.5,0-8.1,1.6-11.6,3.2c-0.4,0.2-0.8,0.4-1.2,0.5c0.6,0.4,1.2,0.9,1.8,1.3c0.1,0,0.1-0.1,0.2-0.1
		c3.5-1.6,6.7-3,10.8-3c4.7,0,8.1,1.6,11.7,3.3c3.6,1.7,7.3,3.4,12.1,3.4c5.4,0,9.4-1.8,13.2-3.6c3.4-1.6,6.7-3.1,10.8-3.1
		c4.6,0,7.6,1.5,10.8,3.1c0.1,0.1,0.3,0.1,0.4,0.2c0.6-0.4,1.2-0.8,1.8-1.2c-0.5-0.2-0.9-0.4-1.3-0.7
		C577.2,370.3,573.9,368.6,568.8,368.6"/>
	<path class="st1" d="M557.2,375.4c-3.6,1.7-7.4,3.4-12.4,3.4c-4.4,0-7.8-1.5-11.3-3.2c-3.7-1.7-7.4-3.4-12.5-3.4
		c-3.6,0-6.7,1.1-9.6,2.3c0.7,0.4,1.3,0.8,2,1.2c2.4-1,4.8-1.7,7.6-1.7c4.7,0,8.1,1.6,11.7,3.3c3.6,1.7,7.3,3.4,12.1,3.4
		c5.4,0,9.4-1.8,13.2-3.6c3.4-1.6,6.7-3.1,10.8-3.1c3.3,0,5.7,0.7,8,1.8c0.7-0.4,1.3-0.8,1.9-1.2c-2.7-1.3-5.7-2.5-9.9-2.5
		C564.3,372.2,560.7,373.8,557.2,375.4"/>
	<path class="st0" d="M545.1,384.3c-34.7,0-62.9-28.2-62.9-62.9c0-34.7,28.2-62.9,62.9-62.9c34.7,0,62.9,28.2,62.9,62.9
		C608,356.2,579.9,384.3,545.1,384.3 M545.1,246.6c-41.4,0-74.9,33.5-74.9,74.9c0,41.4,33.5,74.9,74.9,74.9
		c41.3,0,74.9-33.5,74.9-74.9C620,280.1,586.5,246.6,545.1,246.6"/>
	<path class="st3" d="M580.1,302.9c-0.5,2.3-2.8,4.8-4.1,5.8c-2.9,2.4-22.3,14.2-24.5,16.9c-2.2,2.7-2.6,6.7-2.6,9.8l0,22.8h3v-5.9
		c0-2,1.1-5.2,3.5-7.6c4-4.2,13.3-9.4,19.3-13.8c5.1-3.7,5.4-8.7,5.4-13.1v-15.6L580.1,302.9z"/>
	<path class="st3" d="M549,324.2c2.1-2.7,22.1-14.9,25-17.2c2.9-2.3,6.2-5.9,6.2-10.4v-25.5c0,3.6-2,6.3-4.6,9.7
		c-2.9,3.9-16.4,11.1-23,15.8c-6.6,4.7-8.9,9.3-8.9,15.1v46.6h3v-24.3C546.6,330.9,546.8,326.9,549,324.2"/>
	<path class="st3" d="M533.8,297.9c-6.1-4.7-18.5-14.7-20-16.7c-1.4-2-4.7-5.6-4.7-9.9V295c0,3.4,1.6,9.5,7.5,13.8
		c5.9,4.3,14.2,10.6,16.7,13.1c2.5,2.5,4.8,7,4.8,13.5v22.9h3v-45.5C541.2,305.3,539.9,302.5,533.8,297.9"/>
	<path class="st1" d="M40,292.8v5.7c0,0.8-0.1,1.5-0.6,1.9c-0.3,0.3-1,0.4-1.9,0.4h-3.5v-14c0.8,0.1,2.7,0.3,3.9,1.1
		C40,289.3,40,291.1,40,292.8 M39.8,279.6c6.6,2.4,9.1,0.7,9.2,0.6l0.2-0.1l-1.4-5.8l-0.5,0.3c0,0-1.8,1-6.7-0.7
		c-4.6-1.6-8.7-1.6-12.1,0.1c-5.3,2.7-7,8.4-7,8.7l0,0v4h5.8v14.2H24v6.3h15.5c1.8,0,3.6,0,5.1-1.3c1.7-1.5,1.9-3.6,1.9-5.9v-8.6
		c0-3.2-0.6-5.6-3.8-7.9c-3.8-2.7-10.7-2.8-13.1-2.7C30.7,279.7,34,277.5,39.8,279.6"/>
	<path class="st1" d="M114.4,283.5c0-7.7-5.5-11.1-11-11.1c-8.1,0-11.7,6.6-11.7,6.7l-0.2,0.3l5.3,3.5l0.2-0.4c0,0,1.9-3.7,5.9-3.8
		c1.3,0,2.5,0.4,3.4,1.3c1,1,1.6,2.3,1.6,4v23.3h6.5V283.5z"/>
	<path class="st1" d="M177.2,283.5c0-7.7-5.5-11.1-11-11.1c-8.1,0-11.7,6.6-11.7,6.7l-0.1,0.3l5.2,3.5l0.2-0.4c0,0,1.9-3.7,5.9-3.8
		c1.3,0,2.5,0.4,3.4,1.3c1,1,1.6,2.3,1.6,4v23.3h6.5V283.5z"/>
	<path class="st1" d="M188.2,281.8h10.3h0.3c1.9,0,3.6,0,5.1,1.3c1.7,1.5,1.9,3.6,1.9,5.9v11.1c0,4.3-3.4,7.5-7.9,7.5
		c-4.4,0-7.9-3.3-7.9-7.5c0-4.3,3.4-7.6,7.9-7.6c0.6,0,1,0,1.3,0v-2.6c0-1.3-0.3-1.7-0.5-1.9c-0.3-0.3-1-0.4-1.9-0.4h-15.9v-4.8
		v-0.1l0,0c0.1-0.2,1.6-5.7,6.7-8.4c3.2-1.8,7.1-2,11.6-0.7c4.5,1.3,7,0,7,0l0.4-0.2l0.2,0.4l1.9,4.9l0.1,0.3l-0.3,0.2
		c-3,1.8-7.2,1.2-10.1,0.4C191.5,277.4,189,280.5,188.2,281.8 M197.9,302.2c3.2,0,3.2-4.7,0-4.7
		C194.7,297.5,194.7,302.2,197.9,302.2"/>
	<path class="st1" d="M321.9,281.8h10.6c1.9,0,3.6,0,5.1,1.3c1.7,1.5,1.9,3.6,1.9,5.9v11.1c0,4.3-3.4,7.5-7.8,7.5
		c-4.4,0-7.9-3.3-7.9-7.5c0-4.3,3.4-7.6,7.9-7.6c0.6,0,1,0,1.3,0v-2.6c0-1.3-0.3-1.7-0.5-1.9c-0.4-0.3-1-0.4-1.9-0.4h-15.9v-4.8
		v-0.1l0,0c0.1-0.2,1.6-5.7,6.7-8.4c3.2-1.8,7.1-2,11.6-0.7c4.5,1.3,7,0,7,0l0.4-0.2l2.2,5.6l-0.3,0.2c-3,1.8-7.2,1.2-10.1,0.4
		C325.2,277.4,322.6,280.5,321.9,281.8 M331.6,302.2c3.2,0,3.2-4.7,0-4.7C328.4,297.5,328.4,302.2,331.6,302.2"/>
	<path class="st1" d="M227.3,272.4c-9.1-0.1-14.6,5.6-14.6,5.7l-0.1,0.1v5.6l0.3,0.1c2.1,0.6,4.3,1.3,5.2,1.6
		c-0.7,0.7-2.1,2.5-2.1,5.9v15.8h6.6v-14.8c0-0.9,0-2.4,1-3.7c1-1.3,3.1-2,3.1-2l0.3-0.1v-4.3l-0.2-0.1c-0.1,0-2.5-0.9-3.8-1.3
		c-1.1-0.3-1.9-0.5-2.3-0.7c1-0.6,3.3-1.6,6.7-1.6c0.1,0,8.5,0.2,8.5,7.1v21.4h6.6v-22.8C242.4,277.2,236.5,272.5,227.3,272.4"/>
	<path class="st1" d="M274.9,276.5c-0.6,0.5-1,0.8-1.3,1c0.2,0.3,0.4,0.7,0.7,1.1c1,1.7,1.5,3.9,1.5,6.2v22.3h-6.6v-10.1
		c0-1.6-3.8-8.1-9.8-8.1c-2,0-3.6,1.5-3.6,3.3v0.4c0.3,0,0.8-0.1,1.4-0.1c4.5,0,7.9,3.1,7.9,7.4c0,4.3-3.4,7.5-7.9,7.5
		c-4.5,0-7.9-3.2-7.9-7.5v-7.7c0-4.7,3.4-9.5,10-9.5c5.3,0,8.7,3.1,10.1,4.7v-1.8c0-5.8-6-7.1-8.1-7.1c-7,0-9.3,4.8-9.4,5l-0.2,0.3
		l-5.9-2.6l0.1-0.3c0-0.1,4.1-8.7,15.3-8.7c3.6,0,6,1,6.6,1.2c0.2-0.1,0.5-0.3,1.1-0.8c2.4-2.1,2.5-4.3,2.5-4.3l0-0.4h7.6l0,0.4
		C279.1,268.7,278.7,273.1,274.9,276.5 M257.2,302.2c3.2,0,3.2-4.7,0-4.7C254,297.5,254,302.2,257.2,302.2"/>
	<path class="st1" d="M270.7,260.1c-1.7-0.4-5.3-1-9.3-1c-3.2,0-5.4,0.2-6.5,0.4c0.9-1.2,3.2-3.3,7.5-3.3
		C267.3,256.4,269.7,258.9,270.7,260.1 M277.6,261.3L277.6,261.3L277.6,261.3c0-0.2-2.8-10.9-15.2-11.1c-11.7-0.1-15,10.9-15.1,11
		l0,0.1v0.1v4.8l0.5-0.1c0.1,0,5.1-0.8,13.1-0.8c8.5,0,16.1,1.5,16.2,1.5l0.5,0.1V261.3z"/>
	<path class="st1" d="M296,272.4c-9.1-0.1-14.6,5.6-14.6,5.7l-0.1,0.1v5.6l0.3,0.1c2,0.6,4.3,1.3,5.2,1.6c-0.8,0.7-2.1,2.5-2.1,5.9
		v15.8h6.6v-14.8c0-0.9,0-2.4,1-3.7c1-1.3,3.1-2,3.1-2l0.3-0.1v-4.3l-0.2-0.1c-0.1,0-2.5-0.9-3.8-1.3c-1.1-0.3-1.9-0.5-2.3-0.7
		c1-0.6,3.2-1.6,6.7-1.6c0.1,0,8.5,0.2,8.5,7.1v21.4h6.6v-22.8C311.1,277.2,305.1,272.5,296,272.4"/>
	<path class="st1" d="M399.3,280v27.2h-6.6v-27.5l-11.8,16.6v10.9h-6.5v-19.7c-0.3,0-0.7,0-1.3,0c-4.5,0-7.9-3.3-7.9-7.7
		c0-4.2,3.5-7.5,7.9-7.5c4.4,0,7.8,3.2,7.8,7.5v5.7l0.8-1.4l8.4-11.4h1.9c2,0,3.9,0,5.5,1.4C399.2,275.6,399.3,277.6,399.3,280
		 M373.2,277.9c-3.1,0-3.1,4.6,0,4.6C376.3,282.5,376.3,277.9,373.2,277.9"/>
	<path class="st1" d="M434.6,272.8V300c0,2.3-0.1,4.4-1.9,5.9c-1.5,1.3-3.2,1.3-5.1,1.3h-13.8c-1.9,0-3.6,0-5.1-1.3
		c-1.7-1.5-1.9-3.6-1.9-5.9v-1.8c0-3.9,2.3-5.8,3.4-6.5c-1.4-0.8-4.4-3.3-4.5-9.6c0-6.7,4.6-9.7,8.8-9.7c4.5,0,7.9,3.3,7.9,7.5
		c0,4.3-3.4,7.5-7.9,7.5c-0.2,0-0.4,0-0.6,0c0.3,0.5,1,1.3,2.9,1.7c2.4,0.5,5.1,0.2,5.1,0.2l0.4,0v5.7h-3.7c-2.9,0-5.4,0.2-5.4,3.2
		c0,2.2,0.6,2.7,3.5,2.7h8.8c0.6,0,1.4,0,1.8-0.4c0.5-0.4,0.6-1.2,0.6-1.9v-25.8H434.6z M414.5,277.9c-3.1,0-3.1,4.6,0,4.6
		C417.7,282.5,417.7,277.9,414.5,277.9"/>
	<path class="st1" d="M60.2,277.9c-3.1,0-3.1,4.6,0,4.6C63.3,282.5,63.3,277.9,60.2,277.9 M94,299.4c0,2.2-0.7,4.1-2.2,5.6
		c-1.6,1.6-4,2.6-6.3,2.6c-3.7,0-7.5-2.1-7.5-6.8v-3.1c-0.6,0.4-1.7,1.2-3.6,2.9c-2.7,2.4-4.5,4.6-5.5,5.7c-0.8,0.9-0.9,1-1.1,1h-6
		v-19.7c-0.3,0-0.7,0-1.3,0c-4.5,0-7.8-3.3-7.8-7.7c0-4.2,3.4-7.5,7.8-7.5c4.4,0,7.7,3.2,7.7,7.5v15.3l-0.1,2.9
		c0.8-0.8,2.3-2.3,4.8-4.4c2.5-2,4.4-3,5.1-3.2v-17.7h6.4v16.9C86.1,289.9,93.8,291.5,94,299.4 M85.9,296.9c-3.4,0-3.4,5.1,0,5.1
		C89.3,302,89.3,296.9,85.9,296.9"/>
	<path class="st1" d="M151.3,287.1v20.1h-6.6v-20c0-5.1-4-9-9.3-9c-6.6,0-9.6,4.7-9.6,9.3c0,2.6,0.6,4.5,1.1,5.6
		c0.4-1.6,1.1-4.5,1.1-4.5c1-4.1,3.8-6.6,7.5-6.6c3,0,7.2,2.2,7.2,7c0,5.1-4.4,6.9-7.2,6.9c-1.2,0-2.3-0.4-2.8-0.6
		c-0.2,0.7-0.8,2.4-1.2,4.6c-0.8,3.7-0.9,5.8-0.9,6.9v0.4h-6.6v-0.4v-1.4c0-2.9-1-5.6-2-8.3c-1.3-3.4-2.6-6.9-2.3-11.4
		c0.7-8.8,8.6-13.5,15.8-13.5c4.6,0,8.5,1.4,11.5,4.2C149.7,279.2,151.3,283,151.3,287.1 M135.5,286.5c-3.2,0-3.2,4.7,0,4.7
		C138.7,291.2,138.7,286.5,135.5,286.5"/>
	<path class="st1" d="M365.5,300.1c0,4.2-3.5,7.5-7.9,7.5c-4.5,0-7.8-3.2-7.8-7.5v-33.5l0.4-7.8l-5.1,8.6h-3.9l-3.8-11.9
		c-0.1-0.1-0.3-0.5-0.4-0.9c-0.2-0.5-0.3-0.6-0.5-0.6c-0.3-0.1-0.4-0.2-0.4-0.4v-6.9h3.1c0.5,0,1,0.3,1.6,0.8
		c0.5,0.5,0.8,1.2,0.8,1.2l2.9,8.2l6.1-10.3h5.9v46c0.3,0,0.7-0.1,1.3-0.1C362.1,292.5,365.5,295.7,365.5,300.1 M357.6,302.2
		c3.2,0,3.2-4.7,0-4.7C354.4,297.5,354.4,302.2,357.6,302.2"/>
</g>
</svg>
